<svg width="300" height="300" xmlns="http://www.w3.org/2000/svg" xml:space="preserve" enable-background="new 0 0 90 90" version="1.1" fill="#000000">

 <g>
  <title>Layer 1</title>
  <path transform="rotate(-45, 153.834, 158.232)" id="svg_1" d="m193.2316,258.68206c6.57169,-5.68912 9.81652,-12.52 9.7345,-20.48279c0,-0.20998 0,-0.41996 0,-0.62994c8.31714,-1.13848 15.96497,-4.2127 22.95333,-9.22923l0.06562,-0.06562c10.66628,-7.88734 15.89279,-17.39217 15.67624,-28.51121c-0.00984,-2.66083 -0.30184,-5.25604 -0.88585,-7.77907c0.97115,-0.62994 2.00464,-1.30581 3.09391,-2.01777c0.12796,-0.11483 0.25591,-0.21654 0.38059,-0.31825c7.04086,-4.92466 10.56457,-12.80544 10.55801,-23.64888c0.24935,-6.04674 -1.87669,-12.20175 -6.38139,-18.45847c2.149,-1.24019 4.2127,-2.60833 6.19438,-4.10771c1.02693,-0.7218 2.20806,-1.6503 3.54011,-2.78222c0.48558,-0.41996 0.9285,-0.88585 1.32877,-1.39439c0.09187,-0.12468 0.20014,-0.27232 0.31825,-0.44292c10.45958,-9.57045 15.5811,-19.08184 15.36128,-28.50793c0.54791,-9.76074 -4.4883,-19.22292 -15.10864,-28.3931l-0.06562,-0.05906c-17.38232,-15.56469 -39.44652,-18.6422 -66.19588,-9.22923c-0.59385,-0.64634 -1.2041,-1.29925 -1.83404,-1.96199l0,0.06562c-13.6027,-14.18999 -28.56699,-21.21116 -44.88957,-21.05696c-11.52588,-0.31169 -24.63644,5.50211 -39.32513,17.45122l-0.06562,0.06562c-8.70429,6.72261 -15.99449,17.12969 -21.87391,31.23109c-3.54668,-1.89309 -7.10648,-2.75597 -10.68596,-2.59193c-13.07447,-0.5151 -23.52749,7.21475 -31.36233,23.20596l0.06562,-0.06562c-5.50867,10.97468 -9.09143,23.05176 -10.74502,36.22794l0,0.05906c-1.60109,13.396 -0.12796,26.88387 4.42596,40.46361l0.06562,0.06562c4.73765,14.79696 16.14214,22.98942 34.20361,24.59379c1.84716,3.62542 4.25207,7.42145 7.20819,11.38152l0.06234,0.06562c10.17742,14.51808 27.28743,19.76755 51.33658,15.74186c1.76186,2.00464 3.78618,4.02897 6.07299,6.07299l0,0.06562c10.03634,9.00285 20.46639,13.36319 31.29671,13.0876l0.12468,0c11.08623,-0.21654 19.49524,-2.87409 25.22701,-7.96936c0.03281,-0.06234 0.07874,-0.10171 0.12468,-0.14108zm-23.20268,-67.774c0.12468,0.07218 0.24935,0.15748 0.37731,0.25263c0.84648,0.50198 1.68967,1.0138 2.52959,1.51579c6.29937,3.79275 12.93667,6.46998 19.91191,8.02842c5.08543,1.14504 10.31194,1.71264 15.67953,1.70608c5.45945,-0.00328 10.68596,-0.74149 15.67953,-2.21134c-0.3609,5.36431 -3.20874,10.02322 -8.53696,13.97345l-0.06562,0.06562c-5.968,4.26192 -12.66764,6.39124 -20.10549,6.38467c-8.81912,-0.00328 -17.04111,-2.32617 -24.65941,-6.95227l0.06562,0.05906c-7.74626,-4.81967 -11.7293,-11.03374 -11.94912,-18.65204c-0.00328,-3.05454 0.96459,-5.32822 2.9069,-6.82432l0.12796,0c0.84976,-0.54463 1.79795,-0.97115 2.84456,-1.26644c1.58469,1.34846 3.31701,2.65755 5.1937,3.9207zm24.27554,-37.3008c0.35106,0.10499 0.68899,0.18701 1.0138,0.25263c0.92522,0.16733 1.85372,0.33465 2.78222,0.50198l-0.44292,-0.12468c6.90306,1.64374 13.86189,2.23431 20.86338,1.76842l0.06234,0c4.19302,-0.24279 8.38932,-0.84976 12.58562,-1.83404c3.82555,4.12412 5.88925,8.06451 6.19766,11.82116c-0.00656,4.12084 -1.07942,7.2574 -3.22515,9.42281l-0.19357,0.19029c-0.06562,0.03937 -0.12468,0.08202 -0.19029,0.12796c-1.17129,0.75461 -2.26712,1.4961 -3.28748,2.21462l-0.06234,0c-1.15817,0.82023 -2.23431,1.56172 -3.22515,2.21134c-0.10171,0.05249 -0.2067,0.11483 -0.31497,0.19029c-0.49542,0.19357 -0.981,0.44621 -1.45345,0.75789c-0.34122,0.10499 -0.67915,0.22638 -1.0138,0.37731c-4.91482,2.32617 -10.20367,3.48762 -15.86982,3.47778c-4.06834,-0.00656 -8.0317,-0.44949 -11.88678,-1.32221c-5.15761,-1.14176 -10.06915,-3.10047 -14.73134,-5.88269c-0.83992,-0.50526 -1.68311,-1.0138 -2.52959,-1.51907c-2.24415,-1.57156 -4.14052,-3.25796 -5.68912,-5.0559l0,0.06562c-3.15625,-3.75666 -4.73437,-8.0317 -4.74093,-12.83825c0.00328,-3.24483 1.09911,-5.64647 3.29076,-7.2049l0,-0.06562c2.82159,-1.56828 6.49294,-2.34586 11.00093,-2.33602c3.17265,1.89965 6.86041,3.49746 11.05999,4.80327zm54.25004,-58.54477l0.06234,0.06562c5.78427,4.98044 8.81912,9.95432 9.10456,14.91507c-0.46917,5.20026 -3.81899,10.61378 -10.05274,16.25041c-0.28544,0.2756 -0.55776,0.57416 -0.82023,0.88585c-0.2231,0.27232 -0.43636,0.52495 -0.62994,0.76117c-0.57744,0.46589 -1.10239,0.86288 -1.57812,1.20082c-0.10499,0.08858 -0.20998,0.17389 -0.31825,0.25263c-3.29076,2.52959 -6.93587,4.55392 -10.93859,6.07299c-1.32221,0.38387 -2.67067,0.76445 -4.04538,1.1352c-3.94039,1.09255 -7.88077,1.74217 -11.82444,1.96199l-0.06234,0c-5.28557,0.37403 -10.53504,-0.04921 -15.74514,-1.26644c-0.14764,-0.04265 -0.29856,-0.08202 -0.44292,-0.12468c-0.76117,-0.14108 -1.52235,-0.28544 -2.27696,-0.44292c-0.75461,-0.24279 -1.4961,-0.49214 -2.21134,-0.76117c2.9069,-1.60109 5.43321,-3.81243 7.58549,-6.6373c0.03609,-0.06562 0.07546,-0.12796 0.13124,-0.18701c2.80191,-3.73369 4.61626,-8.22527 5.43321,-13.4649c1.73561,0.7218 4.2652,1.81763 7.58877,3.2842c2.22446,0.98756 4.45549,1.04989 6.70292,0.19357c2.23103,-0.87601 3.83212,-2.41148 4.80327,-4.61954c0.99084,-2.2179 1.05318,-4.44893 0.19357,-6.70292c-0.87929,-2.22775 -2.41476,-3.82884 -4.61626,-4.79999c-7.70689,-3.422 -12.36579,-5.23635 -13.97345,-5.43977c-0.27232,-0.03281 -0.54791,-0.05249 -0.82023,-0.06562c-0.32809,-0.02953 -0.64306,-0.04921 -0.94819,-0.06562c-0.04593,-0.15092 -0.0853,-0.30184 -0.12796,-0.43964c-0.01969,-0.09843 -0.04265,-0.20342 -0.06562,-0.31497c-0.93178,-3.01189 -2.26056,-6.04674 -3.98304,-9.10784c17.47091,-4.86889 32.09398,-2.38523 43.87577,7.46082zm-155.5321,126.31877l-0.06562,-0.06562c-6.60778,-8.91755 -8.88146,-16.0798 -6.83088,-21.4966c1.13192,-2.1326 1.34518,-4.34722 0.63322,-6.6373c-0.70212,-2.30649 -2.11291,-4.03225 -4.23567,-5.18058c-2.12604,-1.13192 -4.34066,-1.3419 -6.6373,-0.62994c-2.30321,0.7054 -4.03225,2.11948 -5.18386,4.23239c-1.96199,3.15625 -3.10047,6.56841 -3.41216,10.24304c-6.50607,-1.93246 -10.93203,-5.8466 -13.27789,-11.7621l0.06234,0.06562c-3.70088,-11.01077 -4.92138,-21.94609 -3.66807,-32.80922l0,-0.06562c1.38783,-11.07967 4.38331,-21.23741 8.97988,-30.47648l0.06234,-0.05906c4.14709,-8.47462 9.37031,-12.9662 15.67953,-13.46818c1.54203,0.2067 3.12016,0.92194 4.74093,2.149c-1.27956,4.43581 -2.46069,9.11112 -3.54011,14.03578c-0.50526,2.34586 -0.10499,4.5408 1.20082,6.57497c1.29268,2.0473 3.10375,3.33014 5.43649,3.85836c2.34914,0.50854 4.5408,0.10827 6.57497,-1.20082c2.04073,-1.29596 3.32685,-3.10047 3.85508,-5.43977c5.59069,-25.53541 13.99969,-43.02601 25.22701,-52.47506l0.06562,-0.06562c10.74174,-8.74694 20.2072,-13.28117 28.38654,-13.59286c11.66696,0.17717 22.41198,5.40368 32.2449,15.68281c1.72576,1.79138 3.29076,3.58605 4.67859,5.37415c0.04265,0.05906 0.08202,0.12468 0.12468,0.18701c0.17717,0.24607 0.36418,0.47901 0.57088,0.69556c3.46793,4.4194 5.88925,8.74366 7.27052,12.95964l-0.06562,-0.31497c0.4134,1.46001 0.73165,2.91346 0.94819,4.36035c-0.00656,0.11483 -0.00656,0.21654 0,0.31825c0.07218,0.7907 0.11811,1.61093 0.12796,2.46397c-0.00328,4.05522 -0.88913,7.40832 -2.65755,10.04946l0.12468,-0.12468c-1.52235,2.00136 -3.67135,2.94955 -6.44701,2.84456c-1.26972,0.0164 -2.4935,-0.13452 -3.66807,-0.44292l-0.19029,-0.06562l-0.06562,0c-2.60505,-0.88585 -5.04934,-2.49022 -7.33286,-4.79999l-0.06234,0c-5.61694,-5.56116 -9.70497,-9.54748 -12.26737,-11.95568c-0.35434,-0.83007 -0.86288,-1.60437 -1.51579,-2.33602c-1.4961,-1.66015 -3.34982,-2.60833 -5.56444,-2.84456c-2.22446,-0.24607 -4.24551,0.2756 -6.06971,1.5814c-1.80779,1.32221 -2.94627,3.07422 -3.41544,5.24619c-0.9121,3.11688 -0.42652,7.34926 1.45345,12.71029l0.06562,0.12796c0.9285,2.53287 1.45345,4.38659 1.5814,5.56116c-0.16733,5.43321 -2.39507,11.05999 -6.70292,16.88362l-0.06562,0.05906c-4.0585,5.32822 -8.2548,8.43197 -12.58234,9.29485c-2.37211,0.31825 -4.28816,1.43704 -5.75474,3.34982c-1.4797,1.91606 -2.07354,4.06506 -1.76842,6.45029c0.31825,2.37211 1.43376,4.28816 3.34982,5.75474c1.91606,1.47641 4.06506,2.07026 6.45357,1.76842c7.69048,-0.7218 14.95772,-5.08215 21.81157,-13.08432c-0.12796,1.14176 -0.19357,2.31961 -0.19357,3.53683c0,5.01325 0.90225,9.71153 2.71988,14.1014c-0.62338,0.35434 -1.23363,0.73821 -1.83732,1.13848c-7.24756,4.41284 -10.86969,11.55213 -10.87297,21.43098c-0.01312,0.96459 0.00656,1.91278 0.06562,2.84456c-5.54804,0.75133 -10.26929,3.57292 -14.16046,8.47462l-0.06234,0.06234c-4.13068,4.9706 -6.19438,11.247 -6.19766,18.84233c-0.02953,1.89637 0.16077,3.79275 0.5676,5.68912c-12.92683,1.0138 -22.49728,-2.19166 -28.69166,-9.60982zm74.47693,27.94689c-6.66027,-0.14436 -13.13025,-3.03485 -19.41321,-8.66491l0,0.06562c-2.77566,-2.53287 -4.987,-5.02309 -6.6373,-7.45754l-0.12468,-0.19357c-0.10827,-0.16077 -0.21326,-0.30841 -0.31825,-0.44292c-1.52563,-2.46397 -2.32617,-4.90826 -2.40163,-7.33286c-0.00328,-3.15953 0.7743,-5.80067 2.34258,-7.90046l0.06234,-0.06562c1.06302,-1.34846 2.37211,-2.06698 3.9207,-2.149c0.39371,-0.00656 0.71196,-0.00656 0.94819,0c0.14108,0.05578 0.28872,0.11811 0.44292,0.18701c0.49542,0.25263 1.00396,0.46261 1.51907,0.63322c3.30389,4.66219 7.92015,8.83552 13.84549,12.52l0.06562,0.05906c7.30005,4.43253 15.0135,7.31974 23.14034,8.66491c0.20014,0.29856 0.43308,0.59057 0.69556,0.88585l-0.06234,0.06562c-0.08202,2.77238 -1.26315,5.17073 -3.5434,7.2049c-3.34654,2.4771 -8.13012,3.7829 -14.35075,3.92398l-0.13124,0l0,-0.00328z"/>
 </g>
</svg>